<svg width="700" height="700" viewBox="0 0 700 700" fill="none" xmlns="http://www.w3.org/2000/svg">
<path d="M600 443C598.638 395.577 583.811 349.52 557.25 310.209C530.689 270.899 493.49 239.958 450 221V150H475C481.63 150 487.989 147.366 492.678 142.678C497.366 137.989 500 131.63 500 125C500 118.37 497.366 112.011 492.678 107.322C487.989 102.634 481.63 100 475 100H225C218.369 100 212.011 102.634 207.322 107.322C202.634 112.011 200 118.37 200 125C200 131.63 202.634 137.989 207.322 142.678C212.011 147.366 218.369 150 225 150H250V221C212.206 237.548 179.094 263.193 153.619 295.648C128.145 328.102 111.098 366.357 104 407C101.291 421.172 99.9514 435.572 99.9998 450C99.8751 452.332 99.8751 454.668 99.9998 457C101.942 518.785 126.706 577.66 169.511 622.258C212.315 666.856 270.125 694.014 331.779 698.489C393.433 702.964 454.558 684.438 503.354 646.489C552.15 608.539 585.156 553.857 596 493C598.604 478.813 599.943 464.423 600 450C600.125 447.668 600.125 445.332 600 443ZM546 491.25C536.389 539.333 509.449 582.21 470.299 611.734C431.149 641.258 382.517 655.37 333.645 651.39C284.772 647.41 239.065 625.614 205.208 590.145C171.351 554.676 151.704 508.005 150 459C150 456 150 453 150 450C149.973 436.209 151.482 422.457 154.5 409C161.557 375.486 177.102 344.345 199.646 318.562C222.19 292.778 250.977 273.216 283.25 261.75C288.378 259.967 292.786 256.563 295.808 252.052C298.83 247.542 300.301 242.171 300 236.75V150H400V238C399.699 243.421 401.17 248.792 404.192 253.302C407.214 257.813 411.622 261.217 416.75 263C454.081 276.154 486.67 300.09 510.39 331.776C534.111 363.463 547.896 401.475 550 441C550.249 443.995 550.249 447.005 550 450C549.986 463.859 548.562 477.68 545.75 491.25H546Z" fill="white"/>
<path d="M500 450C500 489.783 484.197 527.936 456.066 556.066C427.936 584.197 389.783 600 350 600C310.218 600 272.065 584.197 243.934 556.066C215.804 527.936 200 489.783 200 450C199.94 441.105 200.778 432.227 202.5 423.5L210.75 427.5C230.441 438.202 252.596 443.547 275 443C297.404 443.547 319.56 438.202 339.25 427.5C365.55 413.289 395.116 406.221 425 407C449.839 406.373 474.509 411.239 497.25 421.25C499.055 430.728 499.976 440.352 500 450Z" fill="#008CFF"/>
<path d="M150 150C149.935 154.953 147.939 159.684 144.437 163.187C140.934 166.689 136.203 168.685 131.25 168.75C121.325 168.816 111.824 172.787 104.806 179.806C97.7874 186.824 93.8155 196.325 93.75 206.25C93.75 211.223 91.7746 215.992 88.2583 219.508C84.7419 223.025 79.9728 225 75 225C70.0272 225 65.2581 223.025 61.7417 219.508C58.2254 215.992 56.25 211.223 56.25 206.25C56.25 196.304 52.2991 186.766 45.2665 179.733C38.2339 172.701 28.6956 168.75 18.75 168.75C13.7772 168.75 9.00805 166.775 5.49175 163.258C1.97544 159.742 0 154.973 0 150C0 145.027 1.97544 140.258 5.49175 136.742C9.00805 133.225 13.7772 131.25 18.75 131.25C28.6956 131.25 38.2339 127.299 45.2665 120.267C52.2991 113.234 56.25 103.696 56.25 93.75C56.25 88.7772 58.2254 84.0081 61.7417 80.4917C65.2581 76.9754 70.0272 75 75 75C79.9728 75 84.7419 76.9754 88.2583 80.4917C91.7746 84.0081 93.75 88.7772 93.75 93.75C93.8155 103.675 97.7874 113.176 104.806 120.194C111.824 127.213 121.325 131.184 131.25 131.25C136.203 131.315 140.934 133.311 144.437 136.813C147.939 140.316 149.935 145.047 150 150Z" fill="#2BFFFB" fill-opacity="0.81"/>
<path d="M700 75C699.935 79.9527 697.939 84.6843 694.437 88.1867C690.934 91.689 686.203 93.6853 681.25 93.75C671.325 93.8155 661.824 97.7874 654.806 104.806C647.787 111.824 643.816 121.325 643.75 131.25C643.75 136.223 641.775 140.992 638.258 144.508C634.742 148.025 629.973 150 625 150C620.027 150 615.258 148.025 611.742 144.508C608.225 140.992 606.25 136.223 606.25 131.25C606.25 121.304 602.299 111.766 595.266 104.733C588.234 97.7009 578.696 93.75 568.75 93.75C563.777 93.75 559.008 91.7746 555.492 88.2583C551.975 84.7419 550 79.9728 550 75C550 70.0272 551.975 65.2581 555.492 61.7417C559.008 58.2254 563.777 56.25 568.75 56.25C578.696 56.25 588.234 52.2991 595.266 45.2665C602.299 38.2339 606.25 28.6956 606.25 18.75C606.25 13.7772 608.225 9.00805 611.742 5.49175C615.258 1.97544 620.027 0 625 0C629.973 0 634.742 1.97544 638.258 5.49175C641.775 9.00805 643.75 13.7772 643.75 18.75C643.816 28.6754 647.787 38.1756 654.806 45.1941C661.824 52.2126 671.325 56.1845 681.25 56.25C686.203 56.3147 690.934 58.311 694.437 61.8133C697.939 65.3157 699.935 70.0473 700 75Z" fill="#2BFFFB" fill-opacity="0.81"/>
</svg>
