<svg width="700" height="700" viewBox="0 0 700 700" fill="none" xmlns="http://www.w3.org/2000/svg">
<path d="M601.906 390.928C600.534 346.556 585.594 303.463 558.83 266.682C532.066 229.901 494.584 200.951 450.762 183.214V116.782H475.953C482.634 116.782 489.041 114.318 493.765 109.931C498.489 105.545 501.143 99.595 501.143 93.3912C501.143 87.1875 498.489 81.2379 493.765 76.8511C489.041 72.4644 482.634 70 475.953 70H224.047C217.366 70 210.959 72.4644 206.235 76.8511C201.511 81.2379 198.857 87.1875 198.857 93.3912C198.857 99.595 201.511 105.545 206.235 109.931C210.959 114.318 217.366 116.782 224.047 116.782H249.238V183.214C211.155 198.697 177.792 222.692 152.123 253.058C126.454 283.424 109.277 319.217 102.125 357.245C99.3952 370.504 98.0454 383.977 98.0943 397.477C97.9686 399.659 97.9686 401.845 98.0943 404.027C100.051 461.837 125.004 516.923 168.135 558.651C211.266 600.379 269.516 625.789 331.64 629.976C393.764 634.163 455.355 616.83 504.523 581.322C553.691 545.815 586.949 494.652 597.875 437.71C600.499 424.437 601.848 410.973 601.906 397.477C602.031 395.296 602.031 393.109 601.906 390.928ZM547.494 436.073C537.81 481.062 510.665 521.18 471.216 548.804C431.768 576.428 382.766 589.632 333.52 585.908C284.275 582.184 238.219 561.791 204.104 528.604C169.989 495.417 150.192 451.75 148.475 405.898C148.475 403.091 148.475 400.284 148.475 397.477C148.449 384.574 149.969 371.707 153.01 359.116C160.12 327.758 175.784 298.621 198.5 274.497C221.216 250.373 250.222 232.07 282.741 221.341C287.908 219.673 292.35 216.488 295.395 212.268C298.44 208.048 299.922 203.022 299.619 197.95V116.782H400.381V199.12C400.078 204.192 401.56 209.217 404.605 213.437C407.65 217.657 412.092 220.842 417.259 222.511C454.875 234.819 487.712 257.214 511.613 286.861C535.514 316.509 549.404 352.075 551.525 389.057C551.776 391.859 551.776 394.675 551.525 397.477C551.511 410.444 550.076 423.376 547.242 436.073H547.494Z" fill="white"/>
<path d="M501 391.93C501 430.67 485.091 467.824 456.774 495.217C428.456 522.611 390.049 538 350.002 538C309.954 538 271.547 522.611 243.229 495.217C214.912 467.824 199.003 430.67 199.003 391.93C198.943 383.268 199.786 374.622 201.52 366.124L209.825 370.02C229.646 380.441 251.949 385.646 274.502 385.113C297.056 385.646 319.358 380.441 339.18 370.02C365.655 356.181 395.418 349.298 425.501 350.057C450.505 349.446 475.34 354.184 498.232 363.933C500.049 373.162 500.976 382.535 501 391.93Z" fill="#008CFF"/>
</svg>
